PathFileType  4	(X/Y/Z) C:\Users\antoi\Documents\MyRepositories\mobilecap\ResultsAnalysis
DataRate	CameraRate	NumFrames	NumMarkers	Units	OrigDataRate	OrigDataStartFrame	OrigNumFrames
100.0	100.0	6	51	mm	100.0	66	131
Frame#	Time	r_knee			r_shank_antsup			r_ankle			r_calc			r_5meta			r_toe			L_knee			L_shank_antsup			L_ankle			L_calc			L_5meta			L_toe			r_sh2			r_sh3			r_sh4			L_sh2			L_sh3			r_thigh1			r_thigh2			r_thigh3			r_thigh4			r_thigh5			L_thigh1			L_thigh2			L_thigh3			L_thigh4			r.ASIS			r.PSIS			L.ASIS			L.PSIS			C7			R_Shoulder			L_Shoulder			R_Sternum			L_Sternum			R_humerus			R_elbow_med			R_elbow_lat			R_forearm			R_wrist_radius			R_wrist_ulna			L_humerus			L_elbow_med			L_elbow_lat			L_forearm			L_wrist_radius			L_wrist_ulna			R_HJC			L_HJC			R_HJC_reg			L_HJC_reg			
		X1	Y1	Z1	X2	Y2	Z2	X3	Y3	Z3	X4	Y4	Z4	X5	Y5	Z5	X6	Y6	Z6	X7	Y7	Z7	X8	Y8	Z8	X9	Y9	Z9	X10	Y10	Z10	X11	Y11	Z11	X12	Y12	Z12	X13	Y13	Z13	X14	Y14	Z14	X15	Y15	Z15	X16	Y16	Z16	X17	Y17	Z17	X18	Y18	Z18	X19	Y19	Z19	X20	Y20	Z20	X21	Y21	Z21	X22	Y22	Z22	X23	Y23	Z23	X24	Y24	Z24	X25	Y25	Z25	X26	Y26	Z26	X27	Y27	Z27	X28	Y28	Z28	X29	Y29	Z29	X30	Y30	Z30	X31	Y31	Z31	X32	Y32	Z32	X33	Y33	Z33	X34	Y34	Z34	X35	Y35	Z35	X36	Y36	Z36	X37	Y37	Z37	X38	Y38	Z38	X39	Y39	Z39	X40	Y40	Z40	X41	Y41	Z41	X42	Y42	Z42	X43	Y43	Z43	X44	Y44	Z44	X45	Y45	Z45	X46	Y46	Z46	X47	Y47	Z47	X48	Y48	Z48	X49	Y49	Z49	X50	Y50	Z50	X51	Y51	Z51	

66	0.65000000	496.71788	474.15163	-76.04334	495.00262	399.00847	-77.18357	264.24652	151.75368	-108.16565	203.26828	162.60723	-152.73689	319.82240	45.60145	-91.30598	366.16029	45.78579	-144.32812	776.63394	461.99674	-331.15340	831.17273	391.93180	-311.06702	833.02129	84.44314	-313.78475	775.27810	47.00650	-277.86845	943.95205	48.73768	-330.89079	984.78389	76.78398	-272.25310	418.83214	315.59923	-74.11182	440.74654	448.17937	-55.98389	355.17267	368.37607	-59.69658	755.92691	391.59571	-362.11075	773.71202	270.06354	-365.74859	611.50930	700.39189	-32.49778	585.27566	591.31161	-46.91244	516.76949	584.22507	-50.39221	501.38161	724.22111	-46.36561	478.68510	615.63607	-80.34836	730.40961	732.77274	-390.35896	777.62521	605.45507	-359.93031	627.76390	692.08357	-399.50133	668.03278	570.78363	-349.41424	701.26823	904.06812	-94.18235	496.53634	931.07446	-193.49982	720.04636	905.64552	-315.83406	506.13637	926.53333	-274.59344	582.53604	1375.22735	-204.46034	635.96082	1344.13153	-66.72017	613.20229	1346.81399	-344.03198	709.14855	1308.66706	-186.75304	705.45045	1310.49610	-228.63512	688.54004	1242.82163	-13.47688	669.14177	1019.03147	-3.43840	714.57684	1044.15621	39.64109	804.26798	1018.33044	18.50611	912.17223	931.35106	-25.43221	899.36144	910.98036	5.58378	597.33967	1247.47233	-417.37737	531.13853	1030.24316	-392.78607	543.69973	1051.85073	-454.63774	588.34216	961.27040	-491.25438	611.66161	835.95639	-502.83513	573.43636	834.34459	-519.52776	619.22090	815.77415	-111.10758	641.77612	817.58588	-317.38085	629.80653	841.32807	-129.61836	647.04388	833.17624	-275.19906	
67	0.66000000	517.18631	472.42095	-73.83025	513.09583	397.36910	-73.71568	274.79853	158.24499	-106.88043	215.38021	174.08318	-151.95255	322.35593	47.94387	-91.01916	369.13220	45.70366	-143.63115	787.74523	462.47870	-332.29877	841.68534	391.08657	-310.90702	835.39667	84.24172	-313.81020	776.66756	47.87838	-277.70898	945.29214	46.27942	-330.88175	986.94864	72.33988	-271.79431	433.96170	316.85298	-71.57083	460.33129	448.72215	-54.37870	371.97834	371.97553	-59.08375	767.32221	392.30080	-363.32692	782.60681	270.54887	-366.82999	628.27807	700.52381	-33.17858	603.91305	590.79442	-45.79186	535.48830	582.48062	-49.41553	517.89863	722.43651	-47.61812	497.20685	612.93940	-80.14836	742.49926	732.87293	-393.32120	788.61287	605.13385	-362.83523	639.19984	693.33958	-400.49597	678.51590	572.03595	-350.44955	715.87879	904.77337	-96.26187	510.85583	931.94635	-194.26698	733.71609	907.01200	-317.72904	520.06598	927.59882	-275.47812	595.83689	1376.01081	-206.52653	648.71161	1345.30869	-68.51243	627.26597	1347.58530	-345.96527	722.45558	1310.15605	-188.37068	718.99432	1311.83976	-230.26287	700.20063	1243.40952	-14.72515	678.12581	1019.71967	-5.42917	723.48685	1044.21325	38.16712	813.16916	1017.12127	17.70881	920.03013	928.44283	-25.38961	906.72771	908.33215	5.60247	612.17614	1248.05421	-419.21703	546.16374	1030.86287	-394.47469	559.04420	1052.30029	-456.31179	603.80798	961.69196	-492.57433	627.07314	836.07728	-503.74225	588.93726	834.70779	-520.70591	633.93265	816.46875	-112.87655	655.50145	818.89904	-319.24492	644.38572	842.22795	-131.44121	660.89340	834.43746	-276.95940	
68	0.67000000	538.64132	470.42596	-71.24485	532.34333	395.57843	-70.06887	286.80071	165.34383	-105.78711	229.53113	186.34056	-151.34107	325.42103	51.32809	-90.86584	372.48047	46.22087	-142.96889	799.07446	463.33601	-333.36262	851.97054	390.39203	-310.69416	837.04639	84.37034	-313.87470	777.67199	48.56453	-277.54558	946.12436	44.75216	-330.94101	988.42709	68.88967	-271.44575	450.40825	318.05000	-69.00520	481.09972	449.06206	-52.51739	390.16978	375.43598	-58.39141	778.58428	393.26144	-364.57730	791.14592	271.31409	-367.99473	645.39250	700.56511	-33.83434	623.20922	590.16181	-44.58001	554.98651	580.43701	-48.26945	534.68825	720.21479	-48.80770	516.30059	609.79150	-79.70000	754.61123	733.52240	-395.97721	799.73665	605.40812	-365.33699	650.76897	694.90180	-401.77492	689.31316	573.56128	-351.71901	730.22561	905.42009	-98.47456	524.87446	932.87294	-194.97269	747.03360	908.52426	-319.74123	533.66271	928.82366	-276.30760	609.14958	1376.91025	-208.52894	661.48302	1346.58479	-70.21390	641.38070	1348.43001	-347.81479	735.75920	1311.68328	-189.91638	732.53431	1313.20823	-231.79908	711.71155	1244.05473	-15.82568	686.81109	1020.47648	-7.50139	731.99742	1044.28261	36.72986	821.63810	1015.80913	17.03569	927.33586	925.23308	-25.07545	913.44034	905.44702	5.87145	627.15559	1248.70524	-420.99268	561.30825	1031.54187	-396.28153	574.60792	1052.83411	-458.07282	619.67235	962.21482	-493.88248	642.97186	836.31872	-504.58263	605.05463	835.15978	-521.93981	648.37631	817.12930	-114.79606	668.82989	820.38287	-321.26065	658.68923	843.07645	-133.44946	674.40989	835.83388	-278.90461	
69	0.68000000	561.02482	468.25487	-68.36474	552.80661	393.69799	-66.46668	300.36370	173.01047	-104.92045	245.91269	199.16545	-151.00933	329.20452	55.88607	-90.88329	376.39296	47.45020	-142.29285	810.30128	464.35543	-334.32752	861.77706	389.76090	-310.56581	838.11392	84.68647	-313.93775	778.34052	49.08342	-277.40912	946.57985	43.91934	-331.02238	989.33978	66.27530	-271.20464	468.27230	319.15590	-66.57086	503.11931	449.16310	-50.38803	409.82833	378.67251	-57.56385	789.30794	394.31004	-365.74828	799.00974	272.19222	-369.09714	662.75863	700.55818	-34.46201	643.08315	589.47672	-43.33891	575.14173	578.14999	-46.98653	551.67980	717.59723	-49.90888	535.90171	606.25157	-79.03870	766.81633	734.61920	-398.20156	810.98047	606.14659	-367.34024	662.58153	696.67630	-403.42083	700.40340	575.24765	-353.25924	744.21963	905.99481	-100.75703	538.54163	933.77517	-195.57948	760.02837	910.16589	-321.82171	546.89310	930.16747	-277.02721	622.45889	1377.91765	-210.43322	674.29078	1347.91869	-71.80623	655.49852	1349.33196	-349.55068	749.04611	1313.17958	-191.36931	746.04058	1314.54077	-233.21779	723.08780	1244.72792	-16.78330	695.27058	1021.30576	-9.67008	740.15719	1044.36772	35.33013	829.68262	1014.39620	16.50033	934.09866	921.75914	-24.49116	919.51528	902.34975	6.37955	642.22641	1249.40993	-422.67751	576.57407	1032.24226	-398.18921	590.36771	1053.43531	-459.91186	635.92602	962.82500	-495.16094	659.34921	836.64262	-505.32782	621.80019	835.69281	-523.22909	662.51326	817.71646	-116.81903	681.76759	822.01404	-323.37337	672.69671	843.78435	-135.62541	687.60871	837.34269	-281.02913	
70	0.69000000	584.26901	466.03694	-65.31009	574.49987	391.83126	-63.11460	315.53162	181.13530	-104.30537	264.59499	212.22467	-151.07673	333.97489	61.65145	-91.07887	381.19798	49.46563	-141.50536	821.07950	465.30965	-335.20079	870.90071	389.11254	-310.65234	838.79324	85.06514	-313.95837	778.75439	49.48352	-277.31462	946.79451	43.53001	-331.10788	989.84738	64.29627	-271.07405	487.59161	320.17613	-64.40103	526.40211	449.03594	-48.02341	430.95594	381.64062	-56.56507	799.14462	395.29268	-366.75946	805.95514	273.03330	-370.03397	680.25648	700.57985	-35.05430	663.43179	588.83784	-42.11252	595.84048	575.72731	-45.63666	568.79496	714.67745	-50.90658	555.94139	602.43524	-78.22496	779.11599	735.97376	-399.96953	822.24427	607.12439	-368.87649	674.63024	698.55008	-405.43852	711.61781	576.98253	-355.05109	757.79877	906.51281	-103.02316	551.83592	934.58557	-196.05248	772.75603	911.90266	-323.90030	559.75664	931.57998	-277.59383	635.74969	1379.02218	-212.21179	687.13228	1349.26776	-73.27769	669.57532	1350.28116	-351.15069	762.29243	1314.58513	-192.71034	759.48088	1315.79333	-234.49956	734.34838	1245.40040	-17.61796	703.52563	1022.25461	-11.88473	748.02621	1044.48053	33.96900	837.32102	1012.88703	16.11542	940.32676	918.05766	-23.64737	924.97264	899.06369	7.11504	657.33596	1250.16359	-424.24927	591.96411	1032.93854	-400.17879	606.30308	1054.09252	-461.81525	652.55040	963.51752	-496.39051	676.19459	837.03867	-505.96569	639.16181	836.31098	-524.55605	676.32618	818.21815	-118.86609	694.35657	823.74946	-325.49696	686.41054	844.29069	-137.91699	700.53224	838.93189	-283.29015	
71	0.70000000	608.28597	463.93543	-62.22990	597.37307	390.11431	-60.16162	332.26476	189.55051	-103.96248	285.46118	225.08819	-151.65639	340.11047	68.53091	-91.41544	387.37574	52.30904	-140.48030	831.12165	466.02201	-335.99301	879.20970	388.39025	-311.03625	839.26665	85.42397	-313.90607	778.99953	49.82156	-277.25778	946.88028	43.37445	-331.19466	990.11050	62.76853	-271.04286	508.31972	321.16558	-62.58731	550.87857	448.75635	-45.51059	453.46491	384.35443	-55.39140	807.85870	396.09866	-367.57203	811.85675	273.73333	-370.76042	697.76021	700.72724	-35.60213	684.13879	588.36710	-40.92383	616.98032	573.31264	-44.31638	585.95768	711.58702	-51.79819	576.35310	598.49868	-77.34027	791.44715	737.37475	-401.33166	833.39100	608.10495	-370.05068	686.80522	700.42297	-407.74180	722.71103	578.67737	-357.00582	770.93186	907.01427	-105.17659	564.75600	935.25905	-196.37792	785.27456	913.68251	-325.89820	572.27580	933.00653	-277.99648	649.00723	1380.20849	-213.84721	699.98141	1350.59337	-74.62154	683.57725	1351.27032	-352.60132	775.46575	1315.85427	-193.92209	772.82503	1316.94094	-235.63062	745.50784	1246.04586	-18.35889	711.54402	1023.38074	-14.02848	755.65852	1044.63354	32.65227	844.58104	1011.28982	15.88914	946.01343	914.15569	-22.56495	929.84404	895.61280	8.06941	672.43634	1250.96789	-425.69165	607.47503	1033.61882	-402.23039	622.39582	1054.79700	-463.76201	669.51624	964.29459	-497.55455	693.50339	837.54236	-506.51041	657.09884	837.02537	-525.88579	689.80759	818.65152	-120.84154	706.65865	825.52763	-327.53117	699.84145	844.57167	-140.24590	713.23361	840.56017	-285.61513	
